<svg xmlns="http://www.w3.org/2000/svg" width="32" height="32" id="milk">
  <path fill="#2b4255" d="M5 .906h7c.554 0 1 .446 1 1v1c0 .554-.446 1-1 1H5c-.554 0-1-.446-1-1v-1c0-.554.446-1 1-1z"></path>
  <path fill="#e9eded" d="M12 3.906v3.5c0 1 2 4 2 5v13.093c0 1.385-1.115 2.5-2.5 2.5h-6A2.495 2.495 0 0 1 3 25.5V12.406c0-1 2-4 2-5v-3.5"></path>
  <path fill="#4bbfeb" d="M3 13.906h11v9H3z"></path>
  <path fill="#e9eded" d="M-536.13 1381.578c0 .92.735 1.667 1.642 1.667.908 0 1.643-.746 1.643-1.667 0-.92-1.643-3.333-1.643-3.333s-1.642 2.413-1.642 3.333z" color="#000" overflow="visible" style="isolation:auto;mix-blend-mode:normal" transform="translate(542.988 -1362.339)"></path>
  <path fill="#cad1d8" d="M-533.488 1367.744v2c0 .492.21.953.465 1.512.253.558.57 1.172.853 1.746l.899-.442c-.29-.586-.605-1.196-.842-1.718s-.375-1-.375-1.098v-2h-1zm2.68 5.818-.922.387c.16.384.242.716.242.795h1c0-.393-.141-.753-.32-1.181z" color="#000" font-family="sans-serif" font-weight="400" overflow="visible" style="line-height:normal;text-indent:0;text-align:start;text-decoration-line:none;text-decoration-style:solid;text-decoration-color:#000;text-transform:none;block-progression:tb;isolation:auto;mix-blend-mode:normal" transform="translate(542.988 -1362.339)"></path>
  <path fill="#e9eded" d="m28 14-1 12.5c-.066.828-.669 1.5-1.5 1.5h-5c-.83 0-1.43-.673-1.5-1.5L18 14z"></path>
  <path fill="#4bbfeb" d="M20.523 19.99c-.203-.014-.396 0-.584.02-.151.02-.297.073-.445.117l.504 6.293c.033.393.21.58.502.58h5c.292 0 .472-.19.504-.58l.369-4.621c-.136.02-.27.05-.409.06-1.039.076-2.171-.178-3.253-.951-.88-.627-1.578-.875-2.188-.918z"></path>
  <path fill="#cad1d8" d="m-524.988 1376.339 1 12.5c.069.828.669 1.5 1.5 1.5h5c.83 0 1.433-.672 1.5-1.5l1-12.5h-10zm1.084 1h7.834l-.914 11.42c-.032.39-.212.58-.504.58h-5c-.292 0-.469-.187-.502-.58l-.914-11.418z" color="#000" font-family="sans-serif" font-weight="400" overflow="visible" style="line-height:normal;text-indent:0;text-align:start;text-decoration-line:none;text-decoration-style:solid;text-decoration-color:#000;text-transform:none;block-progression:tb;isolation:auto;mix-blend-mode:normal" transform="translate(542.988 -1362.339)"></path>
</svg>
